# Blender 3.6.0
# www.blender.org
mtllib key.mtl
o Плоскость
v 0.100000 0.125000 -3.700000
v 2.100000 0.125000 -3.700000
v 0.100000 0.125000 -5.700000
v 2.100000 0.125000 -5.700000
v 0.100000 0.125000 -5.366667
v 0.100000 0.125000 -5.033334
v 0.100000 0.125000 -4.700000
v 0.100000 0.125000 -4.366667
v 0.100000 0.125000 -4.033334
v 2.100000 0.125000 -4.033334
v 2.100000 0.125000 -4.366667
v 2.100000 0.125000 -4.700000
v 2.100000 0.125000 -5.033334
v 2.100000 0.125000 -5.366667
v 2.295969 0.125000 -3.700000
v 2.295969 0.125000 -5.700000
v 2.295969 0.125000 -4.033334
v 2.295969 0.125000 -4.366667
v 2.295969 0.125000 -5.366667
v 2.557262 0.125000 -4.700000
v 2.557262 0.125000 -5.033334
v 0.100000 -0.125000 -3.700000
v 2.100000 -0.125000 -3.700000
v 0.100000 -0.125000 -5.700000
v 2.100000 -0.125000 -5.700000
v 0.100000 -0.125000 -5.366667
v 0.100000 -0.125000 -5.033334
v 0.100000 -0.125000 -4.700000
v 0.100000 -0.125000 -4.366667
v 0.100000 -0.125000 -4.033334
v 2.100000 -0.125000 -4.033334
v 2.100000 -0.125000 -4.366667
v 2.100000 -0.125000 -4.700000
v 2.100000 -0.125000 -5.033334
v 2.100000 -0.125000 -5.366667
v 2.295969 -0.125000 -3.700000
v 2.295969 -0.125000 -5.700000
v 2.295969 -0.125000 -4.033334
v 2.295969 -0.125000 -4.366667
v 2.295969 -0.125000 -5.366667
v 2.557262 -0.125000 -4.700000
v 2.557262 -0.125000 -5.033334
v 0.000000 -0.300000 6.000000
v 0.000000 -0.300000 -6.000000
v 0.058527 -0.294236 6.000000
v 0.058527 -0.294235 -6.000000
v 0.114805 -0.277164 6.000000
v 0.114805 -0.277163 -6.000000
v 0.166671 -0.249441 6.000000
v 0.166671 -0.249440 -6.000000
v 0.212132 -0.212132 6.000000
v 0.212132 -0.212132 -6.000000
v 0.249441 -0.166672 6.000000
v 0.249441 -0.166671 -6.000000
v 0.277164 -0.114805 6.000000
v 0.277164 -0.114805 -6.000000
v 0.294236 -0.058528 6.000000
v 0.294236 -0.058527 -6.000000
v 0.300000 -0.000000 6.000000
v 0.300000 0.000000 -6.000000
v 0.294236 0.058527 6.000000
v 0.294236 0.058528 -6.000000
v 0.277164 0.114805 6.000000
v 0.277164 0.114805 -6.000000
v 0.249441 0.166671 6.000000
v 0.249441 0.166672 -6.000000
v 0.212132 0.212132 6.000000
v 0.212132 0.212132 -6.000000
v 0.166671 0.249440 6.000000
v 0.166671 0.249441 -6.000000
v 0.114805 0.277163 6.000000
v 0.114805 0.277164 -6.000000
v 0.058527 0.294235 6.000000
v 0.058527 0.294236 -6.000000
v 0.000000 0.300000 6.000000
v 0.000000 0.300000 -6.000000
v -0.058527 0.294235 6.000000
v -0.058527 0.294236 -6.000000
v -0.114805 0.277163 6.000000
v -0.114805 0.277164 -6.000000
v -0.166671 0.249440 6.000000
v -0.166671 0.249441 -6.000000
v -0.212132 0.212132 6.000000
v -0.212132 0.212132 -6.000000
v -0.249441 0.166671 6.000000
v -0.249441 0.166672 -6.000000
v -0.277164 0.114805 6.000000
v -0.277164 0.114805 -6.000000
v -0.294236 0.058527 6.000000
v -0.294236 0.058528 -6.000000
v -0.300000 -0.000000 6.000000
v -0.300000 0.000000 -6.000000
v -0.294236 -0.058528 6.000000
v -0.294236 -0.058527 -6.000000
v -0.277164 -0.114805 6.000000
v -0.277164 -0.114805 -6.000000
v -0.249441 -0.166672 6.000000
v -0.249441 -0.166671 -6.000000
v -0.212132 -0.212132 6.000000
v -0.212132 -0.212132 -6.000000
v -0.166671 -0.249441 6.000000
v -0.166671 -0.249440 -6.000000
v -0.114805 -0.277164 6.000000
v -0.114805 -0.277163 -6.000000
v -0.058527 -0.294236 6.000000
v -0.058527 -0.294235 -6.000000
v -0.597469 0.355000 5.662432
v 0.851559 0.355000 5.472165
v -0.413999 0.355000 5.181314
v 0.413999 0.355000 5.181314
v -2.005749 0.355000 6.348901
v 2.005749 0.355000 6.348901
v -1.536078 0.355000 8.559437
v 1.536078 0.355000 8.559437
v -1.093920 0.355000 8.219320
v -1.056368 0.355000 7.402853
v 1.056368 0.355000 7.402853
v 1.093920 0.355000 8.219320
v -0.597469 -0.355000 5.662432
v 0.851559 -0.355000 5.472165
v -0.413999 -0.355000 5.181314
v 0.413999 -0.355000 5.181314
v -2.005749 -0.355000 6.348901
v 2.005749 -0.355000 6.348901
v -1.536078 -0.355000 8.559437
v 1.536078 -0.355000 8.559437
v -1.093920 -0.355000 8.219320
v -1.056368 -0.355000 7.402853
v 1.056368 -0.355000 7.402853
v 1.093920 -0.355000 8.219320
v -0.624256 0.355000 4.876107
v -0.851559 0.355000 5.472165
v 0.597469 0.355000 5.662432
v 0.624256 0.355000 4.876107
v -1.608494 0.355000 6.430418
v 1.608494 0.355000 6.430418
v -1.234050 0.355000 7.708061
v 1.234050 0.355000 7.708061
v -0.624256 -0.355000 4.876107
v -0.851559 -0.355000 5.472165
v 0.597469 -0.355000 5.662432
v 0.624256 -0.355000 4.876107
v -1.608494 -0.355000 6.430418
v 1.608494 -0.355000 6.430418
v -1.234050 -0.355000 7.708061
v 1.234050 -0.355000 7.708061
v -0.597469 0.312320 5.662432
v 0.597469 0.312320 5.662432
v -1.608494 0.312320 6.430418
v 1.608494 0.312320 6.430418
v -0.597469 -0.312320 5.662432
v 0.597469 -0.312320 5.662432
v -1.608494 -0.312320 6.430418
v 1.608494 -0.312320 6.430418
v -0.413999 0.312320 5.181314
v 0.413999 0.312320 5.181314
v -1.056368 0.312320 7.402853
v 1.056368 0.312320 7.402853
v -0.413999 -0.312320 5.181314
v 0.413999 -0.312320 5.181314
v -1.056368 -0.312320 7.402853
v 1.056368 -0.312320 7.402853
vn -0.0000 1.0000 -0.0000
vn -0.0000 -1.0000 -0.0000
vn -1.0000 -0.0000 -0.0000
vn -0.0000 -0.0000 1.0000
vn -0.0000 -0.0000 -1.0000
vn 1.0000 -0.0000 -0.0000
vn 0.0980 -0.9952 -0.0000
vn 0.2903 -0.9569 -0.0000
vn 0.4714 -0.8819 -0.0000
vn 0.6344 -0.7730 -0.0000
vn 0.7730 -0.6344 -0.0000
vn 0.8819 -0.4714 -0.0000
vn 0.9569 -0.2903 -0.0000
vn 0.9952 -0.0980 -0.0000
vn 0.9952 0.0980 -0.0000
vn 0.9569 0.2903 -0.0000
vn 0.8819 0.4714 -0.0000
vn 0.7730 0.6344 -0.0000
vn 0.6344 0.7730 -0.0000
vn 0.4714 0.8819 -0.0000
vn 0.2903 0.9569 -0.0000
vn 0.0980 0.9952 -0.0000
vn -0.0980 0.9952 -0.0000
vn -0.2903 0.9569 -0.0000
vn -0.4714 0.8819 -0.0000
vn -0.6344 0.7730 -0.0000
vn -0.7730 0.6344 -0.0000
vn -0.8819 0.4714 -0.0000
vn -0.9569 0.2903 -0.0000
vn -0.9952 0.0980 -0.0000
vn -0.9952 -0.0980 -0.0000
vn -0.9569 -0.2903 -0.0000
vn -0.8819 -0.4714 -0.0000
vn -0.7730 -0.6344 -0.0000
vn -0.6344 -0.7730 -0.0000
vn -0.4714 -0.8819 -0.0000
vn -0.2903 -0.9569 -0.0000
vn -0.0980 -0.9952 -0.0000
vn -0.6049 -0.0000 0.7963
vn 0.6049 -0.0000 0.7963
vn -0.9344 -0.0000 0.3563
vn -0.9344 -0.0000 -0.3563
vn 0.9344 -0.0000 -0.3563
vn -0.6049 -0.0000 -0.7963
vn 0.6049 -0.0000 -0.7963
vn 0.9644 -0.0000 -0.2643
vn -0.9644 -0.0000 -0.2643
vn -0.9782 -0.0000 0.2078
vn 0.9782 -0.0000 0.2078
vn 0.8696 -0.0000 -0.4937
vn -0.8696 -0.0000 -0.4937
vn 0.9344 -0.0000 0.3563
vt 0.768098 0.648806
vt 0.768098 0.448209
vt 0.801531 0.448209
vt 0.801531 0.648806
vt 0.600934 0.648806
vt 0.600934 0.448209
vt 0.634367 0.448209
vt 0.634367 0.648806
vt 0.667800 0.448209
vt 0.667800 0.648806
vt 0.701233 0.448209
vt 0.701233 0.648806
vt 0.734665 0.448209
vt 0.734665 0.648806
vt 0.634367 0.428554
vt 0.667800 0.428554
vt 0.600934 0.428554
vt 0.768098 0.428554
vt 0.801531 0.428554
vt 0.701233 0.402347
vt 0.734665 0.402347
vt 0.801531 0.849403
vt 0.768098 0.849403
vt 0.634367 0.849403
vt 0.600934 0.849403
vt 0.667800 0.849403
vt 0.701233 0.849403
vt 0.734665 0.849403
vt 0.667800 0.869058
vt 0.634367 0.869058
vt 0.600934 0.869058
vt 0.801531 0.869058
vt 0.768098 0.869058
vt 0.734665 0.895266
vt 0.701233 0.895266
vt 0.479035 0.865904
vt 0.479035 0.832472
vt 0.504110 0.832472
vt 0.504110 0.865904
vt 0.801531 0.602943
vt 0.801531 0.402347
vt 0.826606 0.402347
vt 0.826606 0.602943
vt 0.810076 0.220252
vt 0.810076 0.019655
vt 0.835151 0.019655
vt 0.835151 0.220252
vt 0.479035 0.698740
vt 0.479035 0.665308
vt 0.504110 0.665308
vt 0.504110 0.698740
vt 0.479035 0.732173
vt 0.504110 0.732173
vt 0.479035 0.765606
vt 0.504110 0.765606
vt 0.479035 0.799039
vt 0.504110 0.799039
vt 0.575321 0.890764
vt 0.575321 0.857331
vt 0.600396 0.857331
vt 0.600396 0.890764
vt 0.079773 0.898371
vt 0.079773 0.864938
vt 0.104848 0.864938
vt 0.104848 0.898371
vt 0.104848 0.864938
vt 0.129923 0.864938
vt 0.129923 0.898371
vt 0.575321 0.698740
vt 0.575321 0.665308
vt 0.600396 0.665308
vt 0.600396 0.698740
vt 0.575321 0.732173
vt 0.600396 0.732173
vt 0.149578 0.864938
vt 0.149578 0.890013
vt 0.129923 0.890013
vt 0.801531 0.622599
vt 0.826606 0.622599
vt 0.169233 0.864938
vt 0.169233 0.890013
vt 0.810076 0.000000
vt 0.835151 -0.000000
vt 0.575321 0.857331
vt 0.575321 0.823899
vt 0.600396 0.823899
vt 0.600396 0.857331
vt 0.575321 0.778036
vt 0.600396 0.778036
vt 0.575321 0.778036
vt 0.600396 0.778036
vt 0.922513 0.401194
vt 0.922513 0.200597
vt 0.941797 0.200597
vt 0.941797 0.401194
vt 0.959963 0.200597
vt 0.959963 0.401194
vt 0.976311 0.200597
vt 0.976311 0.401194
vt 0.835151 0.200597
vt 0.835151 0.000000
vt 0.849054 0.000000
vt 0.849054 0.200597
vt 0.865402 0.000000
vt 0.865402 0.200597
vt 0.883567 0.000000
vt 0.883567 0.200597
vt 0.902851 0.000000
vt 0.902851 0.200597
vt 0.922513 0.000000
vt 0.941797 0.000000
vt 0.959963 0.000000
vt 0.976311 0.000000
vt 0.990214 0.000000
vt 0.990214 0.200597
vt 0.835167 0.602943
vt 0.835167 0.402347
vt 0.849070 0.402347
vt 0.849070 0.602943
vt 0.865418 0.402347
vt 0.865418 0.602943
vt 0.883584 0.402347
vt 0.883584 0.602943
vt 0.902868 0.402347
vt 0.902868 0.602943
vt 0.922530 0.402347
vt 0.922530 0.602943
vt 0.941814 0.402347
vt 0.941814 0.602943
vt 0.959979 0.402347
vt 0.959979 0.602943
vt 0.976327 0.402347
vt 0.976327 0.602943
vt 0.872743 0.823196
vt 0.872743 0.622599
vt 0.889091 0.622599
vt 0.889091 0.823196
vt 0.907256 0.622599
vt 0.907256 0.823196
vt 0.926540 0.622599
vt 0.926540 0.823196
vt 0.946202 0.622599
vt 0.946202 0.823196
vt 0.965487 0.622599
vt 0.965487 0.823196
vt 0.983652 0.622599
vt 0.983652 0.823196
vt 1.000000 0.622599
vt 1.000000 0.823196
vt 0.835151 0.401194
vt 0.849054 0.401194
vt 0.865402 0.401194
vt 0.883567 0.401194
vt 0.279404 0.755292
vt 0.279404 0.774954
vt 0.275568 0.794238
vt 0.268044 0.812403
vt 0.257120 0.828752
vt 0.243217 0.842655
vt 0.226869 0.853578
vt 0.208704 0.861103
vt 0.189420 0.864938
vt 0.169758 0.864938
vt 0.150474 0.861103
vt 0.132308 0.853578
vt 0.115960 0.842655
vt 0.102057 0.828752
vt 0.091133 0.812403
vt 0.083609 0.794238
vt 0.079773 0.774954
vt 0.079773 0.755292
vt 0.083609 0.736008
vt 0.091133 0.717843
vt 0.102057 0.701494
vt 0.115960 0.687591
vt 0.132308 0.676668
vt 0.150474 0.669143
vt 0.169758 0.665308
vt 0.189420 0.665308
vt 0.208704 0.669143
vt 0.226869 0.676668
vt 0.243217 0.687591
vt 0.257120 0.701494
vt 0.268044 0.717843
vt 0.275568 0.736008
vt 0.902851 0.401194
vt 0.479035 0.774954
vt 0.475199 0.794238
vt 0.467675 0.812403
vt 0.456751 0.828752
vt 0.442848 0.842655
vt 0.426500 0.853578
vt 0.408335 0.861103
vt 0.389050 0.864938
vt 0.369389 0.864938
vt 0.350104 0.861103
vt 0.331939 0.853578
vt 0.315591 0.842655
vt 0.301688 0.828752
vt 0.290764 0.812403
vt 0.283240 0.794238
vt 0.279404 0.755292
vt 0.283240 0.736008
vt 0.290764 0.717843
vt 0.301688 0.701494
vt 0.315591 0.687591
vt 0.331939 0.676668
vt 0.350104 0.669143
vt 0.369389 0.665308
vt 0.389051 0.665308
vt 0.408335 0.669143
vt 0.426500 0.676668
vt 0.442848 0.687591
vt 0.456751 0.701494
vt 0.467675 0.717843
vt 0.475199 0.736008
vt 0.479035 0.755292
vt 0.810076 0.389848
vt 0.810076 0.270965
vt 0.814357 0.270965
vt 0.814357 0.389848
vt 0.830886 0.402347
vt 0.830886 0.521230
vt 0.826606 0.521230
vt 0.835167 0.402347
vt 0.835167 0.521230
vt 0.034113 0.091455
vt 0.034113 0.310892
vt 0.000000 0.355239
vt 0.000000 0.047107
vt 0.085392 0.324947
vt 0.221713 0.402347
vt 0.085392 0.077400
vt 0.221713 -0.000000
vt 0.830886 0.571943
vt 0.830886 0.615677
vt 0.826606 0.615677
vt 0.826606 0.571943
vt 0.835167 0.571943
vt 0.835167 0.615677
vt 0.818638 0.220252
vt 0.818638 0.270965
vt 0.814357 0.270965
vt 0.814357 0.220252
vt 0.403545 0.310892
vt 0.369432 0.355239
vt 0.369432 0.047107
vt 0.403545 0.091455
vt 0.591145 -0.000000
vt 0.454824 0.077400
vt 0.454824 0.324947
vt 0.591145 0.402347
vt 0.801531 0.835884
vt 0.840347 0.835884
vt 0.840347 0.907096
vt 0.801531 0.907096
vt 0.840347 0.835884
vt 0.879162 0.835884
vt 0.879162 0.907096
vt 0.840347 0.907096
vt 0.504110 0.790531
vt 0.575321 0.665308
vt 0.575321 0.790531
vt 0.000000 0.893667
vt 0.000000 0.777903
vt 0.071212 0.777903
vt 0.071212 0.893667
vt 0.504110 0.906295
vt 0.504110 0.790531
vt 0.575321 0.790531
vt 0.575321 0.906295
vt 0.738864 0.219437
vt 0.738864 0.000000
vt 0.810076 0.000000
vt 0.810076 0.219437
vt 0.738864 0.255627
vt 0.738864 0.219437
vt 0.810076 0.219437
vt 0.810076 0.255627
vt 0.879162 0.835884
vt 0.915352 0.835884
vt 0.915352 0.907096
vt 0.879162 0.907096
vt 0.738864 0.385992
vt 0.810076 0.385992
vt 0.000000 0.564618
vt -0.000000 0.402347
vt 0.071212 0.402347
vt 0.071212 0.564618
vt 0.801531 0.835884
vt 0.801531 0.622599
vt 0.872743 0.622599
vt 0.872743 0.835884
vt 0.000000 0.777903
vt 0.071212 0.777903
vt 0.290565 0.261099
vt 0.338820 0.242697
vt 0.369432 0.263785
vt 0.309649 0.286583
vt 0.338820 0.159650
vt 0.290565 0.141248
vt 0.309648 0.115763
vt 0.369432 0.138561
vt 0.213537 0.362503
vt 0.213537 0.039844
vt 0.116004 0.095221
vt 0.116004 0.307125
vt 0.708252 0.159650
vt 0.659997 0.141248
vt 0.679081 0.115763
vt 0.738864 0.138561
vt 0.659997 0.261099
vt 0.708252 0.242697
vt 0.738864 0.263785
vt 0.679081 0.286583
vt 0.582969 0.039844
vt 0.582969 0.362503
vt 0.485436 0.095221
vt 0.485436 0.307125
vt 0.233683 0.643150
vt 0.320302 0.560318
vt 0.340354 0.607911
vt 0.280333 0.665308
vt 0.107159 0.657564
vt 0.340354 0.434564
vt 0.079773 0.548800
vt 0.232922 0.402347
vt 0.580883 0.560318
vt 0.600934 0.607911
vt 0.540914 0.665308
vt 0.494264 0.643150
vt 0.367740 0.657564
vt 0.600934 0.434564
vt 0.493503 0.402347
vt 0.340354 0.548800
vt 0.818638 0.389848
vt 0.814357 0.389848
vt 0.071212 0.669628
vt 0.071212 0.457724
vt 0.075493 0.457724
vt 0.075493 0.669628
vt 0.079773 0.457724
vt 0.079773 0.669628
vt 0.075493 0.669628
vt 0.075493 0.457724
vt 0.071212 0.725005
vt 0.075493 0.725005
vt 0.079773 0.725005
vt 0.075493 0.725005
vt 0.071212 0.402347
vt 0.075493 0.402347
vt 0.079773 0.402347
vt 0.075493 0.402347
vt 0.810076 0.220252
vt 0.814357 0.220252
s 0
usemtl Материал
f 5/1/1 14/2/1 4/3/1 3/4/1
f 1/5/1 2/6/1 10/7/1 9/8/1
f 9/8/1 10/7/1 11/9/1 8/10/1
f 8/10/1 11/9/1 12/11/1 7/12/1
f 7/12/1 12/11/1 13/13/1 6/14/1
f 6/14/1 13/13/1 14/2/1 5/1/1
f 11/9/1 10/7/1 17/15/1 18/16/1
f 10/7/1 2/6/1 15/17/1 17/15/1
f 4/3/1 14/2/1 19/18/1 16/19/1
f 13/13/1 12/11/1 20/20/1 21/21/1
f 26/1/2 24/4/2 25/22/2 35/23/2
f 22/5/2 30/8/2 31/24/2 23/25/2
f 30/8/2 29/10/2 32/26/2 31/24/2
f 29/10/2 28/12/2 33/27/2 32/26/2
f 28/12/2 27/14/2 34/28/2 33/27/2
f 27/14/2 26/1/2 35/23/2 34/28/2
f 32/26/2 39/29/2 38/30/2 31/24/2
f 31/24/2 38/30/2 36/31/2 23/25/2
f 25/22/2 37/32/2 40/33/2 35/23/2
f 34/28/2 42/34/2 41/35/2 33/27/2
f 1/36/3 9/37/3 30/38/3 22/39/3
f 2/40/4 1/41/4 22/42/4 23/43/4
f 3/44/5 4/45/5 25/46/5 24/47/5
f 5/48/3 3/49/3 24/50/3 26/51/3
f 6/52/3 5/48/3 26/51/3 27/53/3
f 7/54/3 6/52/3 27/53/3 28/55/3
f 8/56/3 7/54/3 28/55/3 29/57/3
f 9/37/3 8/56/3 29/57/3 30/38/3
f 12/58/6 11/59/6 32/60/6 33/61/6
f 14/62/6 13/63/6 34/64/6 35/65/6
f 16/65/6 19/66/6 40/67/6 37/68/6
f 17/69/6 15/70/6 36/71/6 38/72/6
f 18/73/6 17/69/6 38/72/6 39/74/6
f 11/67/5 18/75/5 39/76/5 32/77/5
f 15/78/4 2/40/4 23/43/4 36/79/4
f 19/75/4 14/80/4 35/81/4 40/76/4
f 4/45/5 16/82/5 37/83/5 25/46/5
f 21/84/6 20/85/6 41/86/6 42/87/6
f 20/88/4 12/73/4 33/74/4 41/89/4
f 13/85/5 21/90/5 42/91/5 34/86/5
f 43/92/7 44/93/7 46/94/7 45/95/7
f 45/95/8 46/94/8 48/96/8 47/97/8
f 47/97/9 48/96/9 50/98/9 49/99/9
f 49/100/10 50/101/10 52/102/10 51/103/10
f 51/103/11 52/102/11 54/104/11 53/105/11
f 53/105/12 54/104/12 56/106/12 55/107/12
f 55/107/13 56/106/13 58/108/13 57/109/13
f 57/109/14 58/108/14 60/110/14 59/93/14
f 59/93/15 60/110/15 62/111/15 61/94/15
f 61/94/16 62/111/16 64/112/16 63/96/16
f 63/96/17 64/112/17 66/113/17 65/98/17
f 65/98/18 66/113/18 68/114/18 67/115/18
f 67/116/19 68/117/19 70/118/19 69/119/19
f 69/119/20 70/118/20 72/120/20 71/121/20
f 71/121/21 72/120/21 74/122/21 73/123/21
f 73/123/22 74/122/22 76/124/22 75/125/22
f 75/125/23 76/124/23 78/126/23 77/127/23
f 77/127/24 78/126/24 80/128/24 79/129/24
f 79/129/25 80/128/25 82/130/25 81/131/25
f 81/131/26 82/130/26 84/132/26 83/133/26
f 83/134/27 84/135/27 86/136/27 85/137/27
f 85/137/28 86/136/28 88/138/28 87/139/28
f 87/139/29 88/138/29 90/140/29 89/141/29
f 89/141/30 90/140/30 92/142/30 91/143/30
f 91/143/31 92/142/31 94/144/31 93/145/31
f 93/145/32 94/144/32 96/146/32 95/147/32
f 95/147/33 96/146/33 98/148/33 97/149/33
f 97/150/34 98/100/34 100/103/34 99/151/34
f 99/151/35 100/103/35 102/105/35 101/152/35
f 101/152/36 102/105/36 104/107/36 103/153/36
f 46/154/5 44/155/5 106/156/5 104/157/5 102/158/5 100/159/5 98/160/5 96/161/5 94/162/5 92/163/5 90/164/5 88/165/5 86/166/5 84/167/5 82/168/5 80/169/5 78/170/5 76/171/5 74/172/5 72/173/5 70/174/5 68/175/5 66/176/5 64/177/5 62/178/5 60/179/5 58/180/5 56/181/5 54/182/5 52/183/5 50/184/5 48/185/5
f 103/153/37 104/107/37 106/109/37 105/186/37
f 105/186/38 106/109/38 44/93/38 43/92/38
f 43/187/4 45/188/4 47/189/4 49/190/4 51/191/4 53/192/4 55/193/4 57/194/4 59/195/4 61/196/4 63/197/4 65/198/4 67/199/4 69/200/4 71/201/4 73/155/4 75/202/4 77/203/4 79/204/4 81/205/4 83/206/4 85/207/4 87/208/4 89/209/4 91/210/4 93/211/4 95/212/4 97/213/4 99/214/4 101/215/4 103/216/4 105/217/4
usemtl Материал.001
f 136/218/39 133/219/39 148/220/39 150/221/39
f 143/222/40 119/223/40 151/224/40 153/42/40
f 107/223/40 135/222/40 149/225/40 147/226/40
f 118/227/1 115/228/1 113/229/1 114/230/1
f 115/228/1 137/231/1 111/232/1 113/229/1
f 138/233/1 118/227/1 114/230/1 112/234/1
f 121/235/4 122/236/4 160/237/4 159/238/4
f 110/236/4 109/235/4 155/239/4 156/240/4
f 122/241/41 141/242/41 152/243/41 160/244/41
f 130/245/2 126/246/2 125/247/2 127/248/2
f 127/248/2 125/247/2 123/249/2 145/250/2
f 146/251/2 124/252/2 126/246/2 130/245/2
f 132/253/42 131/254/42 139/255/42 140/256/42
f 134/257/43 108/258/43 120/259/43 142/260/43
f 131/261/5 134/50/5 142/262/5 139/263/5
f 111/264/44 132/265/44 140/266/44 123/267/44
f 108/268/45 112/269/45 124/270/45 120/271/45
f 115/272/5 118/273/5 130/274/5 127/275/5
f 137/276/46 115/277/46 127/278/46 145/279/46
f 118/280/47 138/281/47 146/282/47 130/283/47
f 138/284/4 137/276/4 145/279/4 146/285/4
f 114/286/4 113/287/4 125/288/4 126/289/4
f 113/290/48 111/291/48 123/292/48 125/293/48
f 112/294/49 114/286/49 126/289/49 124/295/49
f 107/296/1 109/297/1 131/298/1 132/299/1
f 110/300/1 133/301/1 108/302/1 134/303/1
f 109/297/1 110/300/1 134/303/1 131/298/1
f 135/304/1 107/296/1 132/299/1 111/232/1
f 133/301/1 136/305/1 112/234/1 108/302/1
f 117/306/1 116/307/1 137/231/1 138/233/1
f 116/307/1 135/304/1 111/232/1 137/231/1
f 136/305/1 117/306/1 138/233/1 112/234/1
f 121/308/2 119/309/2 140/310/2 139/311/2
f 141/312/2 122/313/2 142/314/2 120/315/2
f 122/313/2 121/308/2 139/311/2 142/314/2
f 119/309/2 143/316/2 123/249/2 140/310/2
f 144/317/2 141/312/2 120/315/2 124/252/2
f 128/318/2 129/319/2 146/251/2 145/250/2
f 143/316/2 128/318/2 145/250/2 123/249/2
f 129/319/2 144/317/2 124/252/2 146/251/2
f 147/320/1 148/321/1 156/322/1 155/323/1
f 148/321/1 147/320/1 149/324/1 150/325/1
f 157/326/1 158/327/1 150/325/1 149/324/1
f 151/328/2 159/329/2 160/330/2 152/331/2
f 152/331/2 154/332/2 153/333/2 151/328/2
f 161/334/2 153/333/2 154/332/2 162/335/2
f 141/242/39 144/336/39 154/337/39 152/243/39
f 116/338/5 117/339/5 158/340/5 157/341/5
f 129/342/5 128/343/5 161/344/5 162/345/5
f 135/346/50 116/338/50 157/341/50 149/347/50
f 128/343/50 143/348/50 153/349/50 161/344/50
f 117/339/51 136/350/51 150/351/51 158/340/51
f 109/235/52 107/223/52 147/226/52 155/239/52
f 144/352/51 129/342/51 162/345/51 154/353/51
f 119/223/52 121/235/52 159/238/52 151/224/52
f 133/219/41 110/354/41 156/355/41 148/220/41
